<svg width="184.746875px" height="86.6px" xmlns="http://www.w3.org/2000/svg" viewBox="157.6265625 31.700000000000003 184.746875 86.6" style="background: rgb(0, 0, 0);" preserveAspectRatio="xMidYMid"><defs><filter id="editing-metal-beveled"><feGaussianBlur stdDeviation="4" in="SourceAlpha" result="blur"></feGaussianBlur><feSpecularLighting surfaceScale="5" specularConstant="0.8" specularExponent="7.5" lighting-color="#5e6fa3" in="blur" result="specular"><fePointLight x="-250" y="-50" z="300"></fePointLight></feSpecularLighting><feComposite operator="in" in="specular" in2="SourceAlpha" result="comp"></feComposite><feComposite in="SourceGraphic" in2="comp" operator="arithmetic" k1="0" k2="1" k3="1" k4="0"></feComposite></filter></defs><g filter="url(#editing-metal-beveled)"><g transform="translate(188.6351729631424, 91.80500221252441)"><path d="M23.09-9.71L23.05-25.35L20.05-26.13L20.05-26.13Q19.93-26.87 20.24-27.50L20.24-27.50L20.24-27.50Q22.78-27.30 24.14-27.30L24.14-27.30L24.14-27.30Q25.62-27.30 28.43-27.50L28.43-27.50L28.43-27.50Q28.55-26.75 28.35-26.13L28.35-26.13L28.35-26.13Q26.32-25.78 25.23-25.35L25.23-25.35L25.23 0.78L25.23 0.78Q24.80 1.05 24.45 1.17L24.45 1.17L8.93-18.52L8.93-18.52Q8.15-19.46 6.63-22.23L6.63-22.23L6.51-22.23L6.51-22.23Q6.71-21.02 6.71-18.41L6.71-18.41L6.71-1.95L9.71-1.13L9.71-1.13Q9.83-0.39 9.52 0.23L9.52 0.23L9.52 0.23Q9.05 0.20 8.23 0.14L8.23 0.14L8.23 0.14Q7.41 0.08 6.73 0.04L6.73 0.04L6.73 0.04Q6.04 0 5.42 0L5.42 0L5.42 0Q5.03 0 1.44 0.20L1.44 0.20L1.44 0.20Q1.33-0.55 1.52-1.17L1.52-1.17L1.52-1.17Q3.00-1.40 4.56-1.95L4.56-1.95L4.56-25.35L1.56-26.13L1.56-26.13Q1.44-26.87 1.75-27.50L1.75-27.50L1.75-27.50Q5.26-27.30 6.51-27.30L6.51-27.30L8.07-27.30L9.05-25.27L21.10-9.79L21.10-9.79Q22.04-8.58 23.20-5.97L23.20-5.97L23.32-5.97L23.32-5.97Q23.24-6.90 23.20-7.37L23.20-7.37L23.20-7.37Q23.17-7.84 23.13-8.42L23.13-8.42L23.13-8.42Q23.09-9.01 23.09-9.71L23.09-9.71ZM29.95-9.75L29.95-9.75L29.95-9.75Q29.95-14.63 32.80-17.47L32.80-17.47L32.80-17.47Q35.65-20.32 39.78-20.28L39.78-20.28L39.78-20.28Q44.30-20.28 46.96-17.28L46.96-17.28L46.96-17.28Q49.61-14.27 49.61-9.75L49.61-9.75L49.61-9.75Q49.61-4.80 46.80-1.99L46.80-1.99L46.80-1.99Q43.99 0.82 39.78 0.78L39.78 0.78L39.78 0.78Q35.14 0.78 32.55-2.22L32.55-2.22L32.55-2.22Q29.95-5.23 29.95-9.75ZM45.40-9.20L45.40-9.20L45.40-9.20Q45.47-12.91 44.07-15.76L44.07-15.76L44.07-15.76Q42.67-18.60 39.70-18.60L39.70-18.60L39.70-18.60Q36.82-18.60 35.47-16.09L35.47-16.09L35.47-16.09Q34.13-13.57 34.16-9.48L34.16-9.48L34.16-9.48Q34.16-7.68 34.50-6.12L34.50-6.12L34.50-6.12Q34.83-4.56 35.53-3.39L35.53-3.39L35.53-3.39Q36.23-2.22 37.30-1.56L37.30-1.56L37.30-1.56Q38.38-0.90 39.86-0.90L39.86-0.90L39.86-0.90Q42.28-0.86 43.84-2.85L43.84-2.85L43.84-2.85Q45.40-4.84 45.40-9.20ZM62.13-1.48L62.13-1.48L62.13-1.48Q64.62-1.48 66.57-3.55L66.57-3.55L66.57-17.12L66.57-17.12Q65.09-18.37 62.71-18.37L62.71-18.37L62.71-18.37Q59.75-18.37 58.23-16.11L58.23-16.11L58.23-16.11Q56.71-13.85 56.71-9.75L56.71-9.75L56.71-9.75Q56.71-5.66 58.07-3.57L58.07-3.57L58.07-3.57Q59.44-1.48 62.13-1.48ZM70.47-29.05L70.47-29.05L70.47-1.87L70.47-1.87Q71.14-1.29 73.20-1.09L73.20-1.09L73.20-1.09Q73.20-1.01 73.22-0.90L73.22-0.90L73.22-0.90Q73.24-0.78 73.24-0.70L73.24-0.70L73.24-0.70Q73.24-0.20 73.01 0.27L73.01 0.27L73.01 0.27Q71.64 0.55 69.73 0.55L69.73 0.55L69.73 0.55Q68.44 0.55 67.51 0.31L67.51 0.31L67.51 0.31Q67.24-0.12 67.04-0.62L67.04-0.62L67.04-0.62Q66.85-1.13 66.77-1.75L66.77-1.75L66.57-1.75L66.57-1.75Q65.09-0.39 63.59 0.20L63.59 0.20L63.59 0.20Q62.09 0.78 60.53 0.78L60.53 0.78L60.53 0.78Q58.85 0.78 57.39 0L57.39 0L57.39 0Q55.93-0.78 54.85-2.16L54.85-2.16L54.85-2.16Q53.78-3.55 53.18-5.40L53.18-5.40L53.18-5.40Q52.57-7.25 52.57-9.40L52.57-9.40L52.57-9.40Q52.57-11.93 53.25-13.94L53.25-13.94L53.25-13.94Q53.94-15.95 55.22-17.36L55.22-17.36L55.22-17.36Q56.51-18.76 58.32-19.50L58.32-19.50L58.32-19.50Q60.14-20.24 62.40-20.24L62.40-20.24L62.40-20.24Q64.62-20.24 66.57-19.27L66.57-19.27L66.69-19.27L66.69-26.75L63.45-27.07L63.45-27.07Q63.41-27.18 63.41-27.46L63.41-27.46L63.41-27.46Q63.41-27.96 63.65-28.43L63.65-28.43L63.65-28.43Q66.46-28.82 68.91-29.48L68.91-29.48L68.91-29.48Q69.73-29.41 70.47-29.05ZM91.22-10.41L79.44-10.53L79.44-9.75L79.44-9.75Q79.44-5.85 81.02-3.67L81.02-3.67L81.02-3.67Q82.60-1.48 85.33-1.48L85.33-1.48L85.33-1.48Q87.09-1.48 88.14-1.81L88.14-1.81L88.14-1.81Q89.19-2.15 90.79-3.24L90.79-3.24L90.79-3.24Q91.42-2.96 91.49-2.30L91.49-2.30L91.49-2.30Q88.80 0.62 85.22 0.66L85.22 0.66L85.22 0.66Q80.73 0.66 78.04-2.15L78.04-2.15L78.04-2.15Q75.35-4.95 75.31-9.75L75.31-9.75L75.31-9.75Q75.35-14.66 78.14-17.41L78.14-17.41L78.14-17.41Q80.92-20.16 85.02-20.16L85.02-20.16L85.02-20.16Q88.33-20.16 90.07-17.92L90.07-17.92L90.07-17.92Q91.81-15.68 91.81-11.86L91.81-11.86L91.81-11.86Q91.81-11.19 91.77-10.84L91.77-10.84L91.22-10.41ZM84.98-18.49L84.98-18.49L84.98-18.49Q83.15-18.49 81.61-16.83L81.61-16.83L81.61-16.83Q80.07-15.17 79.60-12.13L79.60-12.13L88.10-12.60L88.10-12.60Q88.10-15.72 87.42-17.10L87.42-17.10L87.42-17.10Q86.74-18.49 84.98-18.49ZM97.50-5.42L97.50-5.42L97.50-25.35L94.50-26.13L94.50-26.13Q94.38-26.87 94.69-27.50L94.69-27.50L94.69-27.50Q98.20-27.30 99.45-27.30L99.45-27.30L99.45-27.30Q101.20-27.30 104.79-27.50L104.79-27.50L104.79-27.50Q104.91-26.75 104.71-26.13L104.71-26.13L104.71-26.13Q102.69-25.86 101.59-25.35L101.59-25.35L101.59-5.42L101.59-5.42Q101.59-2.03 99.63 0.27L99.63 0.27L99.63 0.27Q97.66 2.57 93.60 4.13L93.60 4.13L93.60 4.13Q93.33 4.09 93.07 3.76L93.07 3.76L93.07 3.76Q92.82 3.43 92.82 3.16L92.82 3.16L92.82 3.16Q97.50 0.74 97.50-5.42ZM109.71-5.85L109.71-5.85L110.10-1.72L110.10-1.72Q111.38-1.01 113.65-1.01L113.65-1.01L113.65-1.01Q115.36-1.01 116.55-1.75L116.55-1.75L116.55-1.75Q117.74-2.50 117.74-3.98L117.74-3.98L117.74-3.98Q117.74-5.30 116.57-6.30L116.57-6.30L116.57-6.30Q115.40-7.29 112.55-8.62L112.55-8.62L112.55-8.62Q110.10-9.75 108.95-11.19L108.95-11.19L108.95-11.19Q107.80-12.64 107.80-14.90L107.80-14.90L107.80-14.90Q107.80-17.55 109.71-18.88L109.71-18.88L109.71-18.88Q111.62-20.20 114.70-20.20L114.70-20.20L114.70-20.20Q117.70-20.20 120.39-19.11L120.39-19.11L120.39-19.11Q120.39-18.95 120.41-18.68L120.41-18.68L120.41-18.68Q120.43-18.41 120.43-18.25L120.43-18.25L120.43-18.25Q120.43-15.95 119.69-13.77L119.69-13.77L119.69-13.77Q119.30-13.69 119.11-13.69L119.11-13.69L119.11-13.69Q118.52-13.69 117.94-13.92L117.94-13.92L117.31-18.14L117.31-18.14Q116.10-18.49 114.82-18.49L114.82-18.49L114.82-18.49Q113.22-18.49 112.14-17.82L112.14-17.82L112.14-17.82Q111.07-17.16 111.03-15.68L111.03-15.68L111.03-15.68Q111.03-14.35 112.01-13.42L112.01-13.42L112.01-13.42Q112.98-12.48 115.67-11.19L115.67-11.19L115.67-11.19Q118.83-9.67 120.08-8.31L120.08-8.31L120.08-8.31Q121.33-6.94 121.33-4.88L121.33-4.88L121.33-4.88Q121.33-2.22 119.28-0.72L119.28-0.72L119.28-0.72Q117.23 0.78 113.92 0.78L113.92 0.78L113.92 0.78Q109.82 0.86 107.33-0.78L107.33-0.78L107.33-1.44L107.33-1.44Q107.29-3.90 108.03-6.01L108.03-6.01L108.03-6.01Q108.26-6.04 108.42-6.04L108.42-6.04L108.42-6.04Q109.12-6.04 109.71-5.85Z" fill="#ffffff"></path></g></g><style>text {
  font-size: 64px;
  font-family: Arial Black;
  dominant-baseline: central;
  text-anchor: middle;
}</style></svg>