<svg width="193.0719482421875px" height="86.6px" xmlns="http://www.w3.org/2000/svg" viewBox="153.46402587890626 31.700000000000003 193.0719482421875 86.6" style="background: rgb(0, 0, 0);" preserveAspectRatio="xMidYMid"><defs><filter id="editing-metal-beveled"><feGaussianBlur stdDeviation="4" in="SourceAlpha" result="blur"></feGaussianBlur><feSpecularLighting surfaceScale="5" specularConstant="0.8" specularExponent="7.5" lighting-color="#5e6fa3" in="blur" result="specular"><fePointLight x="-250" y="-50" z="300"></fePointLight></feSpecularLighting><feComposite operator="in" in="specular" in2="SourceAlpha" result="comp"></feComposite><feComposite in="SourceGraphic" in2="comp" operator="arithmetic" k1="0" k2="1" k3="1" k4="0"></feComposite></filter></defs><g filter="url(#editing-metal-beveled)"><g transform="translate(185.87077927589417, 94.9853401184082)"><path d="M10.80-10.88L10.80-10.88L10.80-10.88Q10.06-10.88 8.70-11.00L8.70-11.00L8.70-1.95L12.48-1.17L12.48-1.17Q12.60-0.43 12.29 0.20L12.29 0.20L12.29 0.20Q8.78 0 6.75 0L6.75 0L6.75 0Q5.03 0 1.40 0.20L1.40 0.20L1.40 0.20Q1.29-0.55 1.48-1.17L1.48-1.17L1.48-1.17Q3.63-1.44 4.60-1.95L4.60-1.95L4.60-25.35L1.60-26.13L1.60-26.13Q1.48-26.87 1.79-27.50L1.79-27.50L1.79-27.50Q5.30-27.30 6.55-27.30L6.55-27.30L6.55-27.30Q7.84-27.30 9.55-27.48L9.55-27.48L9.55-27.48Q11.27-27.65 11.82-27.65L11.82-27.65L11.82-27.65Q16.65-27.65 19.40-25.51L19.40-25.51L19.40-25.51Q22.15-23.36 22.15-19.58L22.15-19.58L22.15-19.58Q22.15-17.28 21.18-15.56L21.18-15.56L21.18-15.56Q20.20-13.85 18.54-12.83L18.54-12.83L18.54-12.83Q16.89-11.82 14.94-11.35L14.94-11.35L14.94-11.35Q12.99-10.88 10.80-10.88ZM11.54-25.90L11.54-25.90L11.54-25.90Q10.18-25.90 8.70-25.55L8.70-25.55L8.70-12.91L8.70-12.91Q9.95-12.68 11.12-12.68L11.12-12.68L11.12-12.68Q14.27-12.68 16.13-14.37L16.13-14.37L16.13-14.37Q17.98-16.07 17.98-19.34L17.98-19.34L17.98-19.34Q17.98-22.31 16.15-24.10L16.15-24.10L16.15-24.10Q14.31-25.90 11.54-25.90ZM27.38 10.49L27.38 10.49L27.38 10.49Q25.43 7.61 25.16 5.50L25.16 5.50L25.16 5.50Q25.90 4.99 26.64 4.95L26.64 4.95L29.13 7.88L29.13 7.88Q31.32 5.73 33.38 0.16L33.38 0.16L26.29-17.55L23.28-18.33L23.28-18.33Q23.17-19.07 23.48-19.70L23.48-19.70L23.48-19.70Q26.99-19.50 28.08-19.50L28.08-19.50L28.08-19.50Q29.29-19.50 32.92-19.70L32.92-19.70L32.92-19.70Q33.03-18.95 32.84-18.33L32.84-18.33L32.84-18.33Q30.62-17.86 30.15-17.55L30.15-17.55L33.38-9.71L33.38-9.71Q35.02-5.77 35.37-3.67L35.37-3.67L35.49-3.67L35.49-3.67Q35.53-3.82 35.76-4.82L35.76-4.82L35.76-4.82Q36.00-5.81 36.27-6.75L36.27-6.75L36.27-6.75Q36.54-7.68 37.01-8.85L37.01-8.85L40.33-17.55L37.64-18.33L37.64-18.33Q37.52-19.07 37.83-19.70L37.83-19.70L37.83-19.70Q40.44-19.50 41.65-19.50L41.65-19.50L41.65-19.50Q43.02-19.50 45.44-19.70L45.44-19.70L45.44-19.70Q45.55-18.95 45.36-18.33L45.36-18.33L45.36-18.33Q43.09-17.86 42.67-17.55L42.67-17.55L35.02 1.83L35.02 1.83Q33.42 5.89 31.40 8.21L31.40 8.21L31.40 8.21Q29.37 10.53 27.38 10.49ZM53.35 0.62L53.35 0.62L53.35 0.62Q51.17 0.62 50.06-0.62L50.06-0.62L50.06-0.62Q48.95-1.87 48.95-4.64L48.95-4.64L48.95-17.08L46.21-17.08L46.21-17.08Q45.83-17.82 46.02-18.84L46.02-18.84L46.02-18.84Q48.20-18.80 49.08-19.71L49.08-19.71L49.08-19.71Q49.96-20.63 50.70-23.59L50.70-23.59L52.77-23.59L52.77-19.23L56.86-19.23L56.86-19.23Q57.41-18.10 56.86-17.08L56.86-17.08L52.77-17.08L52.77-5.62L52.77-5.62Q52.77-3.00 53.18-2.15L53.18-2.15L53.18-2.15Q53.59-1.29 54.72-1.33L54.72-1.33L54.72-1.33Q55.69-1.33 57.06-2.11L57.06-2.11L57.06-2.11Q57.60-1.75 57.64-0.94L57.64-0.94L57.64-0.94Q57.13-0.35 55.98 0.14L55.98 0.14L55.98 0.14Q54.83 0.62 53.35 0.62ZM65.17-29.05L65.17-29.05L65.17-17.36L65.36-17.36L65.36-17.36Q68.64-20.28 71.76-20.28L71.76-20.28L71.76-20.28Q74.84-20.28 76.36-18.66L76.36-18.66L76.36-18.66Q77.88-17.04 77.88-14.20L77.88-14.20L77.88-1.95L80.69-1.17L80.69-1.17Q80.81-0.43 80.50 0.20L80.50 0.20L80.50 0.20Q76.99 0 75.93 0L75.93 0L75.93 0Q74.76 0 71.17 0.20L71.17 0.20L71.17 0.20Q71.06-0.55 71.25-1.17L71.25-1.17L71.25-1.17Q73.20-1.56 73.98-1.95L73.98-1.95L73.98-13.61L73.98-13.61Q73.98-15.83 72.99-16.71L72.99-16.71L72.99-16.71Q71.99-17.59 70.20-17.55L70.20-17.55L70.20-17.55Q68.95-17.55 67.61-16.93L67.61-16.93L67.61-16.93Q66.26-16.30 65.36-15.29L65.36-15.29L65.36-1.95L67.98-1.17L67.98-1.17Q68.09-0.43 67.78 0.20L67.78 0.20L67.78 0.20Q64.27 0 63.41 0L63.41 0L63.41 0Q62.28 0 58.66 0.20L58.66 0.20L58.66 0.20Q58.54-0.55 58.73-1.17L58.73-1.17L58.73-1.17Q60.92-1.68 61.46-1.95L61.46-1.95L61.46-26.75L58.23-27.07L58.23-27.07Q58.11-27.85 58.42-28.43L58.42-28.43L58.42-28.43Q61.23-28.86 63.69-29.48L63.69-29.48L63.69-29.48Q64.35-29.45 65.17-29.05ZM82.68-9.75L82.68-9.75L82.68-9.75Q82.68-14.63 85.53-17.47L85.53-17.47L85.53-17.47Q88.37-20.32 92.51-20.28L92.51-20.28L92.51-20.28Q97.03-20.28 99.68-17.28L99.68-17.28L99.68-17.28Q102.34-14.27 102.34-9.75L102.34-9.75L102.34-9.75Q102.34-4.80 99.53-1.99L99.53-1.99L99.53-1.99Q96.72 0.82 92.51 0.78L92.51 0.78L92.51 0.78Q87.87 0.78 85.27-2.22L85.27-2.22L85.27-2.22Q82.68-5.23 82.68-9.75ZM98.12-9.20L98.12-9.20L98.12-9.20Q98.20-12.91 96.80-15.76L96.80-15.76L96.80-15.76Q95.39-18.60 92.43-18.60L92.43-18.60L92.43-18.60Q89.54-18.60 88.20-16.09L88.20-16.09L88.20-16.09Q86.85-13.57 86.89-9.48L86.89-9.48L86.89-9.48Q86.89-7.68 87.22-6.12L87.22-6.12L87.22-6.12Q87.55-4.56 88.26-3.39L88.26-3.39L88.26-3.39Q88.96-2.22 90.03-1.56L90.03-1.56L90.03-1.56Q91.10-0.90 92.59-0.90L92.59-0.90L92.59-0.90Q95.00-0.86 96.56-2.85L96.56-2.85L96.56-2.85Q98.12-4.84 98.12-9.20ZM111.38-19.54L111.38-19.54L111.27-16.89L111.31-16.85L111.31-16.85Q114.58-20.05 118.64-20.12L118.64-20.12L118.64-20.12Q121.21-20.12 122.66-18.66L122.66-18.66L122.66-18.66Q124.10-17.20 124.10-14.47L124.10-14.47L124.14-1.95L126.87-1.17L126.87-1.17Q126.98-0.43 126.67 0.20L126.67 0.20L126.67 0.20Q123.55 0 122.19 0L122.19 0L122.19 0Q120.78 0 117.58 0.20L117.58 0.20L117.58 0.20Q117.47-0.55 117.66-1.17L117.66-1.17L117.66-1.17Q118.87-1.40 120.24-1.95L120.24-1.95L120.24-12.71L120.24-12.71Q120.24-15.29 119.44-16.34L119.44-16.34L119.44-16.34Q118.64-17.39 116.80-17.39L116.80-17.39L116.80-17.39Q113.65-17.39 111.58-15.05L111.58-15.05L111.58-1.95L114.19-1.17L114.19-1.17Q114.31-0.43 114.00 0.20L114.00 0.20L114.00 0.20Q110.88 0 109.63 0L109.63 0L109.63 0Q108.46 0 104.87 0.20L104.87 0.20L104.87 0.20Q104.75-0.55 104.95-1.17L104.95-1.17L104.95-1.17Q106.82-1.64 107.68-1.95L107.68-1.95L107.68-17.16L104.44-17.47L104.44-17.47Q104.32-18.25 104.64-18.84L104.64-18.84L104.64-18.84Q107.64-19.34 110.06-19.89L110.06-19.89L110.06-19.89Q110.72-19.85 111.38-19.54Z" fill="#ffffff"></path></g></g><style>text {
  font-size: 64px;
  font-family: Arial Black;
  dominant-baseline: central;
  text-anchor: middle;
}</style></svg>