<svg width="148.97187499999998px" height="71px" xmlns="http://www.w3.org/2000/svg" viewBox="175.51406250000002 39.5 148.97187499999998 71" style="background: rgb(0, 0, 0);" preserveAspectRatio="xMidYMid"><defs><filter id="editing-hover" x="-100%" y="-100%" width="300%" height="300%"><feFlood flood-color="none" result="flood"></feFlood><feComposite operator="in" in2="SourceAlpha" in="flood" result="shadow"></feComposite><feOffset dx="-4" dy="-4" in="SourceGraphic" result="offset-1"></feOffset><feOffset dx="4" dy="4" in="shadow" result="offset-2"></feOffset><feMerge><feMergeNode in="offset-2"></feMergeNode><feMergeNode in="offset-1"></feMergeNode></feMerge></filter></defs><g filter="url(#editing-hover)"><g transform="translate(202.1518815755844, 87.19252967834473)"><path d="M6.69-9.45L6.69-9.45L6.69-1.50L9-0.90L9-0.90Q9.09-0.33 8.85 0.15L8.85 0.15L8.85 0.15Q6.15 0 5.19 0L5.19 0L5.19 0Q3.87 0 1.08 0.15L1.08 0.15L1.08 0.15Q0.99-0.42 1.14-0.90L1.14-0.90L1.14-0.90Q2.46-1.05 3.54-1.50L3.54-1.50L3.54-19.50L1.23-20.10L1.23-20.10Q1.14-20.67 1.38-21.15L1.38-21.15L1.38-21.15Q3.90-20.97 5.64-21L5.64-21L8.46-21.18L8.46-21.18Q12.24-21.39 14.55-19.84L14.55-19.84L14.55-19.84Q16.86-18.30 16.86-15.36L16.86-15.36L16.86-15.36Q16.86-11.46 12.75-10.08L12.75-10.08L12.75-9.96L12.75-9.96Q13.08-9.75 13.41-9L13.41-9L13.41-9Q15.90-3.39 16.41-2.58L16.41-2.58L16.41-2.58Q17.16-1.23 18.06-1.02L18.06-1.02L18.06-1.02Q18.42-0.93 18.90-0.93L18.90-0.93L19.26-0.96L19.26-0.96Q19.50-0.60 19.44 0L19.44 0L19.44 0Q19.08 0.42 17.46 0.45L17.46 0.45L17.46 0.45Q15.48 0.45 14.19-1.11L14.19-1.11L14.19-1.11Q13.68-1.71 13.20-2.75L13.20-2.75L13.20-2.75Q12.72-3.78 11.92-5.70L11.92-5.70L11.92-5.70Q11.13-7.62 10.20-9.48L10.20-9.48L10.20-9.48Q9.21-9.39 8.19-9.39L8.19-9.39L8.19-9.39Q7.65-9.39 6.69-9.45ZM13.92-15.18L13.92-15.18L13.92-15.18Q13.92-17.37 12.49-18.59L12.49-18.59L12.49-18.59Q11.07-19.80 8.88-19.80L8.88-19.80L8.88-19.80Q7.92-19.80 6.69-19.47L6.69-19.47L6.69-10.83L6.69-10.83Q7.56-10.62 8.49-10.62L8.49-10.62L8.49-10.62Q11.07-10.62 12.49-11.83L12.49-11.83L12.49-11.83Q13.92-13.05 13.92-15.18ZM32.40-8.01L23.34-8.10L23.34-7.50L23.34-7.50Q23.34-4.50 24.55-2.82L24.55-2.82L24.55-2.82Q25.77-1.14 27.87-1.14L27.87-1.14L27.87-1.14Q29.22-1.14 30.03-1.40L30.03-1.40L30.03-1.40Q30.84-1.65 32.07-2.49L32.07-2.49L32.07-2.49Q32.55-2.28 32.61-1.77L32.61-1.77L32.61-1.77Q30.54 0.48 27.78 0.51L27.78 0.51L27.78 0.51Q24.33 0.51 22.26-1.65L22.26-1.65L22.26-1.65Q20.19-3.81 20.16-7.50L20.16-7.50L20.16-7.50Q20.19-11.28 22.33-13.39L22.33-13.39L22.33-13.39Q24.48-15.51 27.63-15.51L27.63-15.51L27.63-15.51Q30.18-15.51 31.51-13.79L31.51-13.79L31.51-13.79Q32.85-12.06 32.85-9.12L32.85-9.12L32.85-9.12Q32.85-8.61 32.82-8.34L32.82-8.34L32.40-8.01ZM27.60-14.22L27.60-14.22L27.60-14.22Q26.19-14.22 25.00-12.95L25.00-12.95L25.00-12.95Q23.82-11.67 23.46-9.33L23.46-9.33L30.00-9.69L30.00-9.69Q30.00-12.09 29.47-13.15L29.47-13.15L29.47-13.15Q28.95-14.22 27.60-14.22ZM37.80-3.60L37.80-3.60L37.80-3.60Q37.80-2.40 38.45-1.77L38.45-1.77L38.45-1.77Q39.09-1.14 40.20-1.14L40.20-1.14L40.20-1.14Q41.04-1.14 41.98-1.65L41.98-1.65L41.98-1.65Q42.93-2.16 43.41-2.85L43.41-2.85L43.41-6.90L43.41-6.90Q40.32-6.90 39.06-6.17L39.06-6.17L39.06-6.17Q37.80-5.43 37.80-3.60ZM46.35-9.51L46.35-9.51L46.35-1.47L46.35-1.47Q46.80-1.23 48.45-0.87L48.45-0.87L48.45-0.87Q48.54-0.30 48.30 0.18L48.30 0.18L48.30 0.18Q47.19 0.39 45.78 0.39L45.78 0.39L45.78 0.39Q44.79 0.39 44.07 0.21L44.07 0.21L43.65-1.35L43.53-1.35L43.53-1.35Q41.73 0.51 39.06 0.51L39.06 0.51L39.06 0.51Q37.14 0.51 35.97-0.49L35.97-0.49L35.97-0.49Q34.80-1.50 34.80-3.30L34.80-3.30L34.80-3.30Q34.83-8.25 43.41-8.10L43.41-8.10L43.44-10.74L43.44-10.74Q43.47-14.22 40.80-14.25L40.80-14.25L40.80-14.25Q39.21-14.25 37.98-13.80L37.98-13.80L37.59-10.62L37.59-10.62Q36.99-10.41 36.27-10.50L36.27-10.50L36.27-10.50Q35.64-12.78 35.67-14.40L35.67-14.40L35.67-14.40Q38.16-15.60 41.61-15.60L41.61-15.60L41.61-15.60Q44.19-15.63 45.27-14.28L45.27-14.28L45.27-14.28Q46.35-12.93 46.35-9.51ZM60.48-10.62L60.48-10.62L60.09-13.80L60.09-13.80Q59.16-14.22 57.84-14.22L57.84-14.22L57.84-14.22Q56.67-14.22 55.79-13.74L55.79-13.74L55.79-13.74Q54.90-13.26 54.30-12.38L54.30-12.38L54.30-12.38Q53.70-11.49 53.40-10.26L53.40-10.26L53.40-10.26Q53.10-9.03 53.10-7.50L53.10-7.50L53.10-7.50Q53.10-4.35 54.34-2.73L54.34-2.73L54.34-2.73Q55.59-1.11 57.66-1.11L57.66-1.11L57.66-1.11Q59.61-1.11 61.80-2.52L61.80-2.52L61.80-2.52Q62.19-2.31 62.34-1.74L62.34-1.74L62.34-1.74Q60.12 0.51 57.15 0.51L57.15 0.51L57.15 0.51Q55.71 0.51 54.39-0.04L54.39-0.04L54.39-0.04Q53.07-0.60 52.08-1.65L52.08-1.65L52.08-1.65Q51.09-2.70 50.51-4.17L50.51-4.17L50.51-4.17Q49.92-5.64 49.89-7.50L49.89-7.50L49.89-7.50Q49.89-9.39 50.51-10.89L50.51-10.89L50.51-10.89Q51.12-12.39 52.17-13.42L52.17-13.42L52.17-13.42Q53.22-14.46 54.66-15L54.66-15L54.66-15Q56.10-15.54 57.75-15.54L57.75-15.54L57.75-15.54Q60.21-15.54 62.40-14.58L62.40-14.58L62.40-14.58Q62.40-12.39 61.80-10.50L61.80-10.50L61.80-10.50Q61.68-10.47 61.32-10.47L61.32-10.47L61.32-10.47Q60.84-10.47 60.48-10.62ZM69.45 0.48L69.45 0.48L69.45 0.48Q67.77 0.48 66.91-0.48L66.91-0.48L66.91-0.48Q66.06-1.44 66.06-3.57L66.06-3.57L66.06-13.14L63.96-13.14L63.96-13.14Q63.66-13.71 63.81-14.49L63.81-14.49L63.81-14.49Q65.49-14.46 66.16-15.16L66.16-15.16L66.16-15.16Q66.84-15.87 67.41-18.15L67.41-18.15L69-18.15L69-14.79L72.15-14.79L72.15-14.79Q72.57-13.92 72.15-13.14L72.15-13.14L69-13.14L69-4.32L69-4.32Q69-2.31 69.31-1.65L69.31-1.65L69.31-1.65Q69.63-0.99 70.50-1.02L70.50-1.02L70.50-1.02Q71.25-1.02 72.30-1.62L72.30-1.62L72.30-1.62Q72.72-1.35 72.75-0.72L72.75-0.72L72.75-0.72Q72.36-0.27 71.47 0.10L71.47 0.10L71.47 0.10Q70.59 0.48 69.45 0.48ZM76.32-4.17L76.32-4.17L76.32-19.50L74.01-20.10L74.01-20.10Q73.92-20.67 74.16-21.15L74.16-21.15L74.16-21.15Q76.86-21 77.82-21L77.82-21L77.82-21Q79.17-21 81.93-21.15L81.93-21.15L81.93-21.15Q82.02-20.58 81.87-20.10L81.87-20.10L81.87-20.10Q80.31-19.89 79.47-19.50L79.47-19.50L79.47-4.17L79.47-4.17Q79.47-1.56 77.95 0.21L77.95 0.21L77.95 0.21Q76.44 1.98 73.32 3.18L73.32 3.18L73.32 3.18Q73.11 3.15 72.91 2.90L72.91 2.90L72.91 2.90Q72.72 2.64 72.72 2.43L72.72 2.43L72.72 2.43Q76.32 0.57 76.32-4.17ZM85.71-4.50L85.71-4.50L86.01-1.32L86.01-1.32Q87-0.78 88.74-0.78L88.74-0.78L88.74-0.78Q90.06-0.78 90.97-1.35L90.97-1.35L90.97-1.35Q91.89-1.92 91.89-3.06L91.89-3.06L91.89-3.06Q91.89-4.08 90.99-4.84L90.99-4.84L90.99-4.84Q90.09-5.61 87.90-6.63L87.90-6.63L87.90-6.63Q86.01-7.50 85.13-8.61L85.13-8.61L85.13-8.61Q84.24-9.72 84.24-11.46L84.24-11.46L84.24-11.46Q84.24-13.50 85.71-14.52L85.71-14.52L85.71-14.52Q87.18-15.54 89.55-15.54L89.55-15.54L89.55-15.54Q91.86-15.54 93.93-14.70L93.93-14.70L93.93-14.70Q93.93-14.58 93.94-14.37L93.94-14.37L93.94-14.37Q93.96-14.16 93.96-14.04L93.96-14.04L93.96-14.04Q93.96-12.27 93.39-10.59L93.39-10.59L93.39-10.59Q93.09-10.53 92.94-10.53L92.94-10.53L92.94-10.53Q92.49-10.53 92.04-10.71L92.04-10.71L91.56-13.95L91.56-13.95Q90.63-14.22 89.64-14.22L89.64-14.22L89.64-14.22Q88.41-14.22 87.58-13.71L87.58-13.71L87.58-13.71Q86.76-13.20 86.73-12.06L86.73-12.06L86.73-12.06Q86.73-11.04 87.48-10.32L87.48-10.32L87.48-10.32Q88.23-9.60 90.30-8.61L90.30-8.61L90.30-8.61Q92.73-7.44 93.69-6.39L93.69-6.39L93.69-6.39Q94.65-5.34 94.65-3.75L94.65-3.75L94.65-3.75Q94.65-1.71 93.07-0.55L93.07-0.55L93.07-0.55Q91.50 0.60 88.95 0.60L88.95 0.60L88.95 0.60Q85.80 0.66 83.88-0.60L83.88-0.60L83.88-1.11L83.88-1.11Q83.85-3 84.42-4.62L84.42-4.62L84.42-4.62Q84.60-4.65 84.72-4.65L84.72-4.65L84.72-4.65Q85.26-4.65 85.71-4.50Z" fill="#ffffff"></path></g></g><style>text {
  font-size: 64px;
  font-family: Arial Black;
  dominant-baseline: central;
  text-anchor: middle;
}</style></svg>