<svg width="187.6625px" height="86.6px" xmlns="http://www.w3.org/2000/svg" viewBox="156.16875 31.700000000000003 187.6625 86.6" style="background: none;" preserveAspectRatio="xMidYMid"><defs><filter id="editing-metal-beveled"><feGaussianBlur stdDeviation="4" in="SourceAlpha" result="blur"></feGaussianBlur><feSpecularLighting surfaceScale="5" specularConstant="0.8" specularExponent="7.5" lighting-color="#5e6fa3" in="blur" result="specular"><fePointLight x="-250" y="-50" z="300"></fePointLight></feSpecularLighting><feComposite operator="in" in="specular" in2="SourceAlpha" result="comp"></feComposite><feComposite in="SourceGraphic" in2="comp" operator="arithmetic" k1="0" k2="1" k3="1" k4="0"></feComposite></filter></defs><g filter="url(#editing-metal-beveled)"><g transform="translate(187.795179605484, 90.84711933135986)"><path d="M8.70-12.29L8.70-12.29L8.70-1.95L11.70-1.17L11.70-1.17Q11.82-0.43 11.51 0.20L11.51 0.20L11.51 0.20Q8.00 0 6.75 0L6.75 0L6.75 0Q5.03 0 1.40 0.20L1.40 0.20L1.40 0.20Q1.29-0.55 1.48-1.17L1.48-1.17L1.48-1.17Q3.20-1.36 4.60-1.95L4.60-1.95L4.60-25.35L1.60-26.13L1.60-26.13Q1.48-26.87 1.79-27.50L1.79-27.50L1.79-27.50Q5.07-27.26 7.33-27.30L7.33-27.30L11.00-27.53L11.00-27.53Q15.91-27.81 18.91-25.80L18.91-25.80L18.91-25.80Q21.92-23.79 21.92-19.97L21.92-19.97L21.92-19.97Q21.92-14.90 16.57-13.10L16.57-13.10L16.57-12.95L16.57-12.95Q17.00-12.68 17.43-11.70L17.43-11.70L17.43-11.70Q20.67-4.41 21.33-3.35L21.33-3.35L21.33-3.35Q22.31-1.60 23.48-1.33L23.48-1.33L23.48-1.33Q23.95-1.21 24.57-1.21L24.57-1.21L25.04-1.25L25.04-1.25Q25.35-0.78 25.27 0L25.27 0L25.27 0Q24.80 0.55 22.70 0.58L22.70 0.58L22.70 0.58Q20.12 0.58 18.45-1.44L18.45-1.44L18.45-1.44Q17.78-2.22 17.16-3.57L17.16-3.57L17.16-3.57Q16.54-4.91 15.50-7.41L15.50-7.41L15.50-7.41Q14.47-9.91 13.26-12.32L13.26-12.32L13.26-12.32Q11.97-12.21 10.65-12.21L10.65-12.21L10.65-12.21Q9.95-12.21 8.70-12.29ZM18.10-19.73L18.10-19.73L18.10-19.73Q18.10-22.58 16.24-24.16L16.24-24.16L16.24-24.16Q14.39-25.74 11.54-25.74L11.54-25.74L11.54-25.74Q10.30-25.74 8.70-25.31L8.70-25.31L8.70-14.08L8.70-14.08Q9.83-13.81 11.04-13.81L11.04-13.81L11.04-13.81Q14.39-13.81 16.24-15.39L16.24-15.39L16.24-15.39Q18.10-16.96 18.10-19.73ZM42.12-10.41L30.34-10.53L30.34-9.75L30.34-9.75Q30.34-5.85 31.92-3.67L31.92-3.67L31.92-3.67Q33.50-1.48 36.23-1.48L36.23-1.48L36.23-1.48Q37.99-1.48 39.04-1.81L39.04-1.81L39.04-1.81Q40.09-2.15 41.69-3.24L41.69-3.24L41.69-3.24Q42.31-2.96 42.39-2.30L42.39-2.30L42.39-2.30Q39.70 0.62 36.11 0.66L36.11 0.66L36.11 0.66Q31.63 0.66 28.94-2.15L28.94-2.15L28.94-2.15Q26.25-4.95 26.21-9.75L26.21-9.75L26.21-9.75Q26.25-14.66 29.04-17.41L29.04-17.41L29.04-17.41Q31.82-20.16 35.92-20.16L35.92-20.16L35.92-20.16Q39.23-20.16 40.97-17.92L40.97-17.92L40.97-17.92Q42.70-15.68 42.70-11.86L42.70-11.86L42.70-11.86Q42.70-11.19 42.67-10.84L42.67-10.84L42.12-10.41ZM35.88-18.49L35.88-18.49L35.88-18.49Q34.05-18.49 32.51-16.83L32.51-16.83L32.51-16.83Q30.97-15.17 30.50-12.13L30.50-12.13L39-12.60L39-12.60Q39-15.72 38.32-17.10L38.32-17.10L38.32-17.10Q37.63-18.49 35.88-18.49ZM49.14-4.68L49.14-4.68L49.14-4.68Q49.14-3.12 49.98-2.30L49.98-2.30L49.98-2.30Q50.82-1.48 52.26-1.48L52.26-1.48L52.26-1.48Q53.35-1.48 54.58-2.15L54.58-2.15L54.58-2.15Q55.81-2.81 56.43-3.71L56.43-3.71L56.43-8.97L56.43-8.97Q52.42-8.97 50.78-8.01L50.78-8.01L50.78-8.01Q49.14-7.06 49.14-4.68ZM60.25-12.36L60.25-12.36L60.25-1.91L60.25-1.91Q60.84-1.60 62.98-1.13L62.98-1.13L62.98-1.13Q63.10-0.39 62.79 0.23L62.79 0.23L62.79 0.23Q61.35 0.51 59.51 0.51L59.51 0.51L59.51 0.51Q58.23 0.51 57.29 0.27L57.29 0.27L56.75-1.75L56.59-1.75L56.59-1.75Q54.25 0.66 50.78 0.66L50.78 0.66L50.78 0.66Q48.28 0.66 46.76-0.64L46.76-0.64L46.76-0.64Q45.24-1.95 45.24-4.29L45.24-4.29L45.24-4.29Q45.28-10.72 56.43-10.53L56.43-10.53L56.47-13.96L56.47-13.96Q56.51-18.49 53.04-18.52L53.04-18.52L53.04-18.52Q50.97-18.52 49.37-17.94L49.37-17.94L48.87-13.81L48.87-13.81Q48.09-13.53 47.15-13.65L47.15-13.65L47.15-13.65Q46.33-16.61 46.37-18.72L46.37-18.72L46.37-18.72Q49.61-20.28 54.09-20.28L54.09-20.28L54.09-20.28Q57.45-20.32 58.85-18.56L58.85-18.56L58.85-18.56Q60.25-16.81 60.25-12.36ZM78.62-13.81L78.62-13.81L78.12-17.94L78.12-17.94Q76.91-18.49 75.19-18.49L75.19-18.49L75.19-18.49Q73.67-18.49 72.52-17.86L72.52-17.86L72.52-17.86Q71.37-17.24 70.59-16.09L70.59-16.09L70.59-16.09Q69.81-14.94 69.42-13.34L69.42-13.34L69.42-13.34Q69.03-11.74 69.03-9.75L69.03-9.75L69.03-9.75Q69.03-5.66 70.65-3.55L70.65-3.55L70.65-3.55Q72.27-1.44 74.96-1.44L74.96-1.44L74.96-1.44Q77.49-1.44 80.34-3.28L80.34-3.28L80.34-3.28Q80.85-3.00 81.04-2.26L81.04-2.26L81.04-2.26Q78.16 0.66 74.30 0.66L74.30 0.66L74.30 0.66Q72.42 0.66 70.71-0.06L70.71-0.06L70.71-0.06Q68.99-0.78 67.70-2.15L67.70-2.15L67.70-2.15Q66.42-3.51 65.66-5.42L65.66-5.42L65.66-5.42Q64.90-7.33 64.86-9.75L64.86-9.75L64.86-9.75Q64.86-12.21 65.66-14.16L65.66-14.16L65.66-14.16Q66.46-16.11 67.82-17.45L67.82-17.45L67.82-17.45Q69.19-18.80 71.06-19.50L71.06-19.50L71.06-19.50Q72.93-20.20 75.08-20.20L75.08-20.20L75.08-20.20Q78.27-20.20 81.12-18.95L81.12-18.95L81.12-18.95Q81.12-16.11 80.34-13.65L80.34-13.65L80.34-13.65Q80.18-13.61 79.72-13.61L79.72-13.61L79.72-13.61Q79.09-13.61 78.62-13.81ZM90.29 0.62L90.29 0.62L90.29 0.62Q88.10 0.62 86.99-0.62L86.99-0.62L86.99-0.62Q85.88-1.87 85.88-4.64L85.88-4.64L85.88-17.08L83.15-17.08L83.15-17.08Q82.76-17.82 82.95-18.84L82.95-18.84L82.95-18.84Q85.14-18.80 86.01-19.71L86.01-19.71L86.01-19.71Q86.89-20.63 87.63-23.59L87.63-23.59L89.70-23.59L89.70-19.23L93.80-19.23L93.80-19.23Q94.34-18.10 93.80-17.08L93.80-17.08L89.70-17.08L89.70-5.62L89.70-5.62Q89.70-3.00 90.11-2.15L90.11-2.15L90.11-2.15Q90.52-1.29 91.65-1.33L91.65-1.33L91.65-1.33Q92.63-1.33 93.99-2.11L93.99-2.11L93.99-2.11Q94.54-1.75 94.58-0.94L94.58-0.94L94.58-0.94Q94.07-0.35 92.92 0.14L92.92 0.14L92.92 0.14Q91.77 0.62 90.29 0.62ZM99.22-5.42L99.22-5.42L99.22-25.35L96.21-26.13L96.21-26.13Q96.10-26.87 96.41-27.50L96.41-27.50L96.41-27.50Q99.92-27.30 101.17-27.30L101.17-27.30L101.17-27.30Q102.92-27.30 106.51-27.50L106.51-27.50L106.51-27.50Q106.63-26.75 106.43-26.13L106.43-26.13L106.43-26.13Q104.40-25.86 103.31-25.35L103.31-25.35L103.31-5.42L103.31-5.42Q103.31-2.03 101.34 0.27L101.34 0.27L101.34 0.27Q99.37 2.57 95.32 4.13L95.32 4.13L95.32 4.13Q95.04 4.09 94.79 3.76L94.79 3.76L94.79 3.76Q94.54 3.43 94.54 3.16L94.54 3.16L94.54 3.16Q99.22 0.74 99.22-5.42ZM111.42-5.85L111.42-5.85L111.81-1.72L111.81-1.72Q113.10-1.01 115.36-1.01L115.36-1.01L115.36-1.01Q117.08-1.01 118.27-1.75L118.27-1.75L118.27-1.75Q119.46-2.50 119.46-3.98L119.46-3.98L119.46-3.98Q119.46-5.30 118.29-6.30L118.29-6.30L118.29-6.30Q117.12-7.29 114.27-8.62L114.27-8.62L114.27-8.62Q111.81-9.75 110.66-11.19L110.66-11.19L110.66-11.19Q109.51-12.64 109.51-14.90L109.51-14.90L109.51-14.90Q109.51-17.55 111.42-18.88L111.42-18.88L111.42-18.88Q113.33-20.20 116.41-20.20L116.41-20.20L116.41-20.20Q119.42-20.20 122.11-19.11L122.11-19.11L122.11-19.11Q122.11-18.95 122.13-18.68L122.13-18.68L122.13-18.68Q122.15-18.41 122.15-18.25L122.15-18.25L122.15-18.25Q122.15-15.95 121.41-13.77L121.41-13.77L121.41-13.77Q121.02-13.69 120.82-13.69L120.82-13.69L120.82-13.69Q120.24-13.69 119.65-13.92L119.65-13.92L119.03-18.14L119.03-18.14Q117.82-18.49 116.53-18.49L116.53-18.49L116.53-18.49Q114.93-18.49 113.86-17.82L113.86-17.82L113.86-17.82Q112.79-17.16 112.75-15.68L112.75-15.68L112.75-15.68Q112.75-14.35 113.72-13.42L113.72-13.42L113.72-13.42Q114.70-12.48 117.39-11.19L117.39-11.19L117.39-11.19Q120.55-9.67 121.80-8.31L121.80-8.31L121.80-8.31Q123.05-6.94 123.05-4.88L123.05-4.88L123.05-4.88Q123.05-2.22 121.00-0.72L121.00-0.72L121.00-0.72Q118.95 0.78 115.63 0.78L115.63 0.78L115.63 0.78Q111.54 0.86 109.04-0.78L109.04-0.78L109.04-1.44L109.04-1.44Q109.00-3.90 109.75-6.01L109.75-6.01L109.75-6.01Q109.98-6.04 110.14-6.04L110.14-6.04L110.14-6.04Q110.84-6.04 111.42-5.85Z" fill="#ffffff"></path></g></g><style>text {
  font-size: 64px;
  font-family: Arial Black;
  dominant-baseline: central;
  text-anchor: middle;
}</style></svg>