<svg width="320.6375px" height="86.6px" xmlns="http://www.w3.org/2000/svg" viewBox="89.68125 31.700000000000003 320.6375 86.6" style="background: rgb(0, 0, 0);" preserveAspectRatio="xMidYMid"><defs><filter id="editing-metal-beveled"><feGaussianBlur stdDeviation="4" in="SourceAlpha" result="blur"></feGaussianBlur><feSpecularLighting surfaceScale="5" specularConstant="0.8" specularExponent="7.5" lighting-color="#5e6fa3" in="blur" result="specular"><fePointLight x="-250" y="-50" z="300"></fePointLight></feSpecularLighting><feComposite operator="in" in="specular" in2="SourceAlpha" result="comp"></feComposite><feComposite in="SourceGraphic" in2="comp" operator="arithmetic" k1="0" k2="1" k3="1" k4="0"></feComposite></filter></defs><g filter="url(#editing-metal-beveled)"><g transform="translate(139.5064240694046, 90.28500080108643)"><path d="M10.02-1.95L10.02-1.95L10.02-25.55L3.94-25.55L2.81-19.97L2.81-19.97Q1.87-19.81 1.25-20.09L1.25-20.09L1.25-20.09Q0.74-24.57 0.86-27.30L0.86-27.30L23.67-27.30L23.67-27.30Q23.79-24.18 23.24-20.09L23.24-20.09L23.24-20.09Q22.62-19.81 21.68-19.97L21.68-19.97L20.55-25.55L14.12-25.55L14.12-1.95L17.36-1.17L17.36-1.17Q17.47-0.43 17.16 0.20L17.16 0.20L17.16 0.20Q13.65 0 12.17 0L12.17 0L12.17 0Q10.41 0 6.83 0.20L6.83 0.20L6.83 0.20Q6.71-0.58 6.90-1.17L6.90-1.17L6.90-1.17Q8.42-1.36 10.02-1.95ZM27.46-4.68L27.46-4.68L27.46-4.68Q27.46-3.12 28.29-2.30L28.29-2.30L28.29-2.30Q29.13-1.48 30.58-1.48L30.58-1.48L30.58-1.48Q31.67-1.48 32.90-2.15L32.90-2.15L32.90-2.15Q34.13-2.81 34.75-3.71L34.75-3.71L34.75-8.97L34.75-8.97Q30.73-8.97 29.09-8.01L29.09-8.01L29.09-8.01Q27.46-7.06 27.46-4.68ZM38.57-12.36L38.57-12.36L38.57-1.91L38.57-1.91Q39.16-1.60 41.30-1.13L41.30-1.13L41.30-1.13Q41.42-0.39 41.11 0.23L41.11 0.23L41.11 0.23Q39.66 0.51 37.83 0.51L37.83 0.51L37.83 0.51Q36.54 0.51 35.61 0.27L35.61 0.27L35.06-1.75L34.91-1.75L34.91-1.75Q32.56 0.66 29.09 0.66L29.09 0.66L29.09 0.66Q26.60 0.66 25.08-0.64L25.08-0.64L25.08-0.64Q23.56-1.95 23.56-4.29L23.56-4.29L23.56-4.29Q23.59-10.72 34.75-10.53L34.75-10.53L34.79-13.96L34.79-13.96Q34.83-18.49 31.36-18.52L31.36-18.52L31.36-18.52Q29.29-18.52 27.69-17.94L27.69-17.94L27.18-13.81L27.18-13.81Q26.40-13.53 25.47-13.65L25.47-13.65L25.47-13.65Q24.65-16.61 24.69-18.72L24.69-18.72L24.69-18.72Q27.92-20.28 32.41-20.28L32.41-20.28L32.41-20.28Q35.76-20.32 37.17-18.56L37.17-18.56L37.17-18.56Q38.57-16.81 38.57-12.36ZM44.34-26.09L44.34-26.09L44.34-26.09Q44.34-26.83 45.24-27.61L45.24-27.61L45.24-27.61Q46.14-28.39 47.11-28.39L47.11-28.39L47.11-28.39Q48.09-28.39 48.79-27.51L48.79-27.51L48.79-27.51Q49.49-26.64 49.49-25.74L49.49-25.74L49.49-25.74Q49.49-24.96 48.61-24.20L48.61-24.20L48.61-24.20Q47.74-23.44 46.72-23.44L46.72-23.44L46.72-23.44Q45.83-23.44 45.08-24.32L45.08-24.32L45.08-24.32Q44.34-25.19 44.34-26.09ZM49.73-19.46L49.73-19.46L49.73-1.95L52.34-1.17L52.34-1.17Q52.46-0.43 52.14 0.20L52.14 0.20L52.14 0.20Q48.63 0 47.78 0L47.78 0L47.78 0Q46.61 0 43.02 0.20L43.02 0.20L43.02 0.20Q42.90-0.55 43.10-1.17L43.10-1.17L43.10-1.17Q45.28-1.68 45.83-1.95L45.83-1.95L45.83-17.16L42.59-17.47L42.59-17.47Q42.47-18.25 42.78-18.84L42.78-18.84L42.78-18.84Q46.02-19.30 48.24-19.89L48.24-19.89L48.24-19.89Q48.91-19.85 49.73-19.46ZM60.45-29.05L60.45-29.05L60.45-1.95L63.45-1.17L63.45-1.17Q63.57-0.43 63.26 0.20L63.26 0.20L63.26 0.20Q59.75 0 58.50 0L58.50 0L58.50 0Q57.37 0 53.74 0.20L53.74 0.20L53.74 0.20Q53.63-0.55 53.82-1.17L53.82-1.17L53.82-1.17Q56.00-1.72 56.55-1.95L56.55-1.95L56.55-26.75L53.31-27.07L53.31-27.07Q53.20-27.85 53.51-28.43L53.51-28.43L53.51-28.43Q56.75-28.90 58.97-29.48L58.97-29.48L58.97-29.48Q59.63-29.45 60.45-29.05ZM85.57 1.09L85.57 1.09L80.65-12.99L75.82 0.55L75.82 0.55Q74.96 0.97 73.98 1.05L73.98 1.05L66.81-17.55L63.80-18.33L63.80-18.33Q63.69-19.07 64.00-19.70L64.00-19.70L64.00-19.70Q67.51-19.50 68.76-19.50L68.76-19.50L68.76-19.50Q70.04-19.50 73.67-19.70L73.67-19.70L73.67-19.70Q73.79-18.95 73.59-18.33L73.59-18.33L73.59-18.33Q71.45-17.86 70.90-17.55L70.90-17.55L73.79-9.40L73.79-9.40Q74.76-6.63 75.43-3.86L75.43-3.86L75.54-3.86L75.54-3.86Q76.40-7.21 77.14-9.24L77.14-9.24L79.64-15.91L79.09-17.55L76.09-18.33L76.09-18.33Q75.97-19.07 76.28-19.70L76.28-19.70L76.28-19.70Q79.29-19.50 80.93-19.50L80.93-19.50L80.93-19.50Q82.60-19.50 85.41-19.70L85.41-19.70L85.41-19.70Q85.53-18.95 85.33-18.33L85.33-18.33L85.33-18.33Q83.19-17.90 82.64-17.55L82.64-17.55L85.25-9.05L85.25-9.05Q86.58-4.80 86.89-3.47L86.89-3.47L87.01-3.47L87.01-3.47Q87.44-5.42 88.53-8.74L88.53-8.74L91.30-17.55L88.30-18.33L88.30-18.33Q88.18-19.07 88.49-19.70L88.49-19.70L88.49-19.70Q91.03-19.50 92.39-19.50L92.39-19.50L92.39-19.50Q93.68-19.50 96.53-19.70L96.53-19.70L96.53-19.70Q96.64-18.95 96.45-18.33L96.45-18.33L96.45-18.33Q94.38-17.98 93.68-17.55L93.68-17.55L87.44 0.55L87.44 0.55Q86.54 1.01 85.57 1.09ZM98.98-26.09L98.98-26.09L98.98-26.09Q98.98-26.83 99.88-27.61L99.88-27.61L99.88-27.61Q100.78-28.39 101.75-28.39L101.75-28.39L101.75-28.39Q102.73-28.39 103.43-27.51L103.43-27.51L103.43-27.51Q104.13-26.64 104.13-25.74L104.13-25.74L104.13-25.74Q104.13-24.96 103.25-24.20L103.25-24.20L103.25-24.20Q102.38-23.44 101.36-23.44L101.36-23.44L101.36-23.44Q100.46-23.44 99.72-24.32L99.72-24.32L99.72-24.32Q98.98-25.19 98.98-26.09ZM104.36-19.46L104.36-19.46L104.36-1.95L106.98-1.17L106.98-1.17Q107.09-0.43 106.78 0.20L106.78 0.20L106.78 0.20Q103.27 0 102.41 0L102.41 0L102.41 0Q101.24 0 97.66 0.20L97.66 0.20L97.66 0.20Q97.54-0.55 97.73-1.17L97.73-1.17L97.73-1.17Q99.92-1.68 100.46-1.95L100.46-1.95L100.46-17.16L97.23-17.47L97.23-17.47Q97.11-18.25 97.42-18.84L97.42-18.84L97.42-18.84Q100.66-19.30 102.88-19.89L102.88-19.89L102.88-19.89Q103.55-19.85 104.36-19.46ZM115.32-19.54L115.32-19.54L115.21-16.89L115.25-16.85L115.25-16.85Q118.52-20.05 122.58-20.12L122.58-20.12L122.58-20.12Q125.15-20.12 126.59-18.66L126.59-18.66L126.59-18.66Q128.04-17.20 128.04-14.47L128.04-14.47L128.08-1.95L130.81-1.17L130.81-1.17Q130.92-0.43 130.61 0.20L130.61 0.20L130.61 0.20Q127.49 0 126.13 0L126.13 0L126.13 0Q124.72 0 121.52 0.20L121.52 0.20L121.52 0.20Q121.41-0.55 121.60-1.17L121.60-1.17L121.60-1.17Q122.81-1.40 124.18-1.95L124.18-1.95L124.18-12.71L124.18-12.71Q124.18-15.29 123.38-16.34L123.38-16.34L123.38-16.34Q122.58-17.39 120.74-17.39L120.74-17.39L120.74-17.39Q117.59-17.39 115.52-15.05L115.52-15.05L115.52-1.95L118.13-1.17L118.13-1.17Q118.25-0.43 117.94 0.20L117.94 0.20L117.94 0.20Q114.82 0 113.57 0L113.57 0L113.57 0Q112.40 0 108.81 0.20L108.81 0.20L108.81 0.20Q108.69-0.55 108.89-1.17L108.89-1.17L108.89-1.17Q110.76-1.64 111.62-1.95L111.62-1.95L111.62-17.16L108.38-17.47L108.38-17.47Q108.26-18.25 108.58-18.84L108.58-18.84L108.58-18.84Q111.58-19.34 114.00-19.89L114.00-19.89L114.00-19.89Q114.66-19.85 115.32-19.54ZM142.31-1.48L142.31-1.48L142.31-1.48Q144.81-1.48 146.76-3.55L146.76-3.55L146.76-17.12L146.76-17.12Q145.28-18.37 142.90-18.37L142.90-18.37L142.90-18.37Q139.93-18.37 138.41-16.11L138.41-16.11L138.41-16.11Q136.89-13.85 136.89-9.75L136.89-9.75L136.89-9.75Q136.89-5.66 138.25-3.57L138.25-3.57L138.25-3.57Q139.62-1.48 142.31-1.48ZM150.66-29.05L150.66-29.05L150.66-1.87L150.66-1.87Q151.32-1.29 153.39-1.09L153.39-1.09L153.39-1.09Q153.39-1.01 153.41-0.90L153.41-0.90L153.41-0.90Q153.43-0.78 153.43-0.70L153.43-0.70L153.43-0.70Q153.43-0.20 153.19 0.27L153.19 0.27L153.19 0.27Q151.83 0.55 149.92 0.55L149.92 0.55L149.92 0.55Q148.63 0.55 147.69 0.31L147.69 0.31L147.69 0.31Q147.42-0.12 147.22-0.62L147.22-0.62L147.22-0.62Q147.03-1.13 146.95-1.75L146.95-1.75L146.76-1.75L146.76-1.75Q145.28-0.39 143.77 0.20L143.77 0.20L143.77 0.20Q142.27 0.78 140.71 0.78L140.71 0.78L140.71 0.78Q139.03 0.78 137.57 0L137.57 0L137.57 0Q136.11-0.78 135.04-2.16L135.04-2.16L135.04-2.16Q133.97-3.55 133.36-5.40L133.36-5.40L133.36-5.40Q132.76-7.25 132.76-9.40L132.76-9.40L132.76-9.40Q132.76-11.93 133.44-13.94L133.44-13.94L133.44-13.94Q134.12-15.95 135.41-17.36L135.41-17.36L135.41-17.36Q136.69-18.76 138.51-19.50L138.51-19.50L138.51-19.50Q140.32-20.24 142.58-20.24L142.58-20.24L142.58-20.24Q144.81-20.24 146.76-19.27L146.76-19.27L146.87-19.27L146.87-26.75L143.64-27.07L143.64-27.07Q143.60-27.18 143.60-27.46L143.60-27.46L143.60-27.46Q143.60-27.96 143.83-28.43L143.83-28.43L143.83-28.43Q146.64-28.82 149.10-29.48L149.10-29.48L149.10-29.48Q149.92-29.41 150.66-29.05ZM176.83-4.25L176.83-4.25L176.83-4.25Q177.65-4.02 177.72-2.96L177.72-2.96L177.72-2.96Q173.90 0.78 168.83 0.78L168.83 0.78L168.83 0.78Q166.18 0.78 163.78-0.10L163.78-0.10L163.78-0.10Q161.38-0.97 159.53-2.69L159.53-2.69L159.53-2.69Q157.68-4.41 156.57-7.23L156.57-7.23L156.57-7.23Q155.45-10.06 155.45-13.65L155.45-13.65L155.45-13.65Q155.45-17.20 156.68-20.03L156.68-20.03L156.68-20.03Q157.91-22.85 159.96-24.61L159.96-24.61L159.96-24.61Q162.01-26.36 164.37-27.22L164.37-27.22L164.37-27.22Q166.72-28.08 169.22-28.08L169.22-28.08L169.22-28.08Q174.68-28.08 177.88-26.32L177.88-26.32L177.88-26.32Q178.03-23.56 176.67-19.93L176.67-19.93L176.67-19.93Q175.69-19.77 174.95-20.12L174.95-20.12L174.53-25.16L174.53-25.16Q172.42-26.05 169.49-26.01L169.49-26.01L169.49-26.01Q165.44-26.01 162.71-22.44L162.71-22.44L162.71-22.44Q159.98-18.88 159.98-13.65L159.98-13.65L159.98-13.65Q159.98-8.00 162.38-4.64L162.38-4.64L162.38-4.64Q164.78-1.29 169.26-1.29L169.26-1.29L169.26-1.29Q173.32-1.29 176.83-4.25ZM188.99 0.74L188.99 0.74L188.99 0.74Q183.73 0.74 180.84-0.62L180.84-0.62L180.84-0.62Q180.84-4.09 181.86-7.41L181.86-7.41L181.86-7.41Q181.94-7.41 182.09-7.43L182.09-7.43L182.09-7.43Q182.25-7.45 182.36-7.45L182.36-7.45L182.36-7.45Q183.07-7.45 183.57-7.21L183.57-7.21L184.20-2.03L184.20-2.03Q186.65-1.44 188.41-1.44L188.41-1.44L188.41-1.44Q189.77-1.44 191.22-1.75L191.22-1.75L191.22-1.75Q192.66-2.07 193.73-3.04L193.73-3.04L193.73-3.04Q194.80-4.02 194.80-5.69L194.80-5.69L194.80-5.69Q194.80-7.21 194.36-8.15L194.36-8.15L194.36-8.15Q193.91-9.09 192.29-10.20L192.29-10.20L192.29-10.20Q190.67-11.31 187.24-12.79L187.24-12.79L187.24-12.79Q183.73-14.35 182.31-16.13L182.31-16.13L182.31-16.13Q180.88-17.90 180.96-20.90L180.96-20.90L180.96-20.90Q181.00-24.34 183.85-26.13L183.85-26.13L183.85-26.13Q186.69-27.92 190.98-27.92L190.98-27.92L190.98-27.92Q194.61-27.92 197.61-26.75L197.61-26.75L197.61-26.75Q197.73-23.79 196.40-20.16L196.40-20.16L196.40-20.16Q196.25-20.12 195.90-20.12L195.90-20.12L195.90-20.12Q195.23-20.12 194.69-20.36L194.69-20.36L194.26-25.55L194.26-25.55Q192.50-26.05 190.75-26.05L190.75-26.05L190.75-26.05Q188.17-26.05 186.44-24.94L186.44-24.94L186.44-24.94Q184.70-23.83 184.66-21.57L184.66-21.57L184.66-21.57Q184.63-19.77 185.70-18.64L185.70-18.64L185.70-18.64Q186.77-17.51 190.24-15.95L190.24-15.95L190.24-15.95Q192.78-14.82 194.18-14.06L194.18-14.06L194.18-14.06Q195.58-13.30 196.74-12.27L196.74-12.27L196.74-12.27Q197.89-11.23 198.39-9.91L198.39-9.91L198.39-9.91Q198.90-8.58 198.90-6.79L198.90-6.79L198.90-6.79Q198.82-3.16 195.90-1.21L195.90-1.21L195.90-1.21Q192.97 0.74 188.99 0.74ZM210.25 0.74L210.25 0.74L210.25 0.74Q204.98 0.74 202.10-0.62L202.10-0.62L202.10-0.62Q202.10-4.09 203.11-7.41L203.11-7.41L203.11-7.41Q203.19-7.41 203.35-7.43L203.35-7.43L203.35-7.43Q203.50-7.45 203.62-7.45L203.62-7.45L203.62-7.45Q204.32-7.45 204.83-7.21L204.83-7.21L205.45-2.03L205.45-2.03Q207.91-1.44 209.66-1.44L209.66-1.44L209.66-1.44Q211.03-1.44 212.47-1.75L212.47-1.75L212.47-1.75Q213.91-2.07 214.99-3.04L214.99-3.04L214.99-3.04Q216.06-4.02 216.06-5.69L216.06-5.69L216.06-5.69Q216.06-7.21 215.61-8.15L215.61-8.15L215.61-8.15Q215.16-9.09 213.54-10.20L213.54-10.20L213.54-10.20Q211.93-11.31 208.49-12.79L208.49-12.79L208.49-12.79Q204.98-14.35 203.56-16.13L203.56-16.13L203.56-16.13Q202.14-17.90 202.21-20.90L202.21-20.90L202.21-20.90Q202.25-24.34 205.10-26.13L205.10-26.13L205.10-26.13Q207.95-27.92 212.24-27.92L212.24-27.92L212.24-27.92Q215.86-27.92 218.87-26.75L218.87-26.75L218.87-26.75Q218.98-23.79 217.66-20.16L217.66-20.16L217.66-20.16Q217.50-20.12 217.15-20.12L217.15-20.12L217.15-20.12Q216.49-20.12 215.94-20.36L215.94-20.36L215.51-25.55L215.51-25.55Q213.76-26.05 212.00-26.05L212.00-26.05L212.00-26.05Q209.43-26.05 207.69-24.94L207.69-24.94L207.69-24.94Q205.96-23.83 205.92-21.57L205.92-21.57L205.92-21.57Q205.88-19.77 206.95-18.64L206.95-18.64L206.95-18.64Q208.03-17.51 211.50-15.95L211.50-15.95L211.50-15.95Q214.03-14.82 215.44-14.06L215.44-14.06L215.44-14.06Q216.84-13.30 217.99-12.27L217.99-12.27L217.99-12.27Q219.14-11.23 219.65-9.91L219.65-9.91L219.65-9.91Q220.15-8.58 220.15-6.79L220.15-6.79L220.15-6.79Q220.08-3.16 217.15-1.21L217.15-1.21L217.15-1.21Q214.23 0.74 210.25 0.74Z" fill="#ffffff"></path></g></g><style>text {
  font-size: 64px;
  font-family: Arial Black;
  dominant-baseline: central;
  text-anchor: middle;
}</style></svg>